<svg width="184" height="59" viewBox="0 0 184 59" fill="none" xmlns="http://www.w3.org/2000/svg">
<path fill-rule="evenodd" clip-rule="evenodd" d="M169.9 46.0708C169.9 46.2491 169.757 46.3933 169.578 46.3933H95.0983C95.0529 46.3941 95.0083 46.3817 94.9698 46.3575C94.9313 46.3333 94.9006 46.2985 94.8814 46.2571C94.8622 46.2158 94.8553 46.1697 94.8617 46.1246C94.868 46.0794 94.8872 46.037 94.9169 46.0026L97.0753 43.4459C97.4133 43.0447 97.9105 42.814 98.4364 42.814H165.727C165.805 42.8143 165.882 42.7992 165.954 42.7696C166.026 42.7399 166.092 42.6962 166.147 42.641C166.202 42.5859 166.246 42.5203 166.276 42.448C166.306 42.3758 166.322 42.2983 166.322 42.2201V18.8193C166.322 18.6882 166.428 18.582 166.558 18.582H169.663C169.794 18.582 169.9 18.6869 169.9 18.8193V46.0708Z" fill="#161616"/>
<path fill-rule="evenodd" clip-rule="evenodd" d="M96.4631 12.8594H162.736C162.738 12.8594 162.737 28.0316 162.736 35.4236V38.982C162.736 39.1131 162.629 39.214 162.497 39.214C147.675 39.1616 132.8 39.1786 117.944 39.1957C110.78 39.2048 103.619 39.2127 96.4722 39.214C95.9398 39.214 95.4361 39.4513 95.0968 39.8617L90.2292 45.7643C89.8926 46.1747 89.3876 46.4133 88.8564 46.4133H20.2492C20.1865 46.4133 20.1262 46.3884 20.0817 46.3439C20.0372 46.2994 20.0121 46.2391 20.0117 46.176V20.237C20.0117 20.1059 20.1031 19.9997 20.2336 19.9997H88.8369C89.3641 19.9997 89.8495 19.7663 90.1888 19.3612L95.0968 13.4979C95.4361 13.0941 95.9359 12.8594 96.4631 12.8594ZM50.3234 41.0483C48.7523 41.0483 47.3325 40.7074 46.064 40.0282C44.8441 39.3815 43.8206 38.4157 43.1018 37.2329C42.3945 36.0333 42.0421 34.6894 42.0421 33.2013C42.0421 31.7132 42.3945 30.3758 43.1018 29.1919C43.8153 27.9988 44.8396 27.0241 46.064 26.373C47.3325 25.6952 48.7523 25.3556 50.3234 25.3556C51.8946 25.3556 53.3066 25.6952 54.5607 26.373C55.7851 27.0241 56.8094 27.9988 57.5229 29.1919C58.2433 30.3758 58.6034 31.7132 58.6034 33.2013C58.6034 34.6894 58.2433 36.0333 57.5229 37.2329C56.8041 38.4157 55.7806 39.3815 54.5607 40.0282C53.3079 40.7074 51.8946 41.0483 50.3234 41.0483ZM50.3234 38.0563C51.216 38.0563 52.0238 37.8544 52.7441 37.4493C53.4658 37.0297 54.0269 36.4528 54.4315 35.7147C54.8491 34.9791 55.0578 34.1413 55.0578 33.2013C55.0578 32.2625 54.8491 31.4234 54.4315 30.6866C54.0434 29.9655 53.4579 29.3713 52.7441 28.9742C52.0077 28.5508 51.1718 28.3335 50.3234 28.3449C49.4295 28.3449 48.6218 28.5547 47.9014 28.9742C47.1848 29.3746 46.5934 29.9675 46.1932 30.6866C45.7887 31.4234 45.5877 32.2625 45.5877 33.2013C45.5877 34.14 45.79 34.9778 46.1932 35.7147C46.6108 36.4528 47.1811 37.0297 47.9014 37.4493C48.6427 37.8591 49.4774 38.0683 50.3234 38.0563ZM39.2939 25.6139C39.3591 25.6139 39.4113 25.6676 39.4113 25.7332V40.668C39.4113 40.7336 39.3591 40.7874 39.2939 40.7874H36.5926C36.5751 40.7874 36.5579 40.7836 36.5421 40.7761C36.5263 40.7686 36.5123 40.7577 36.5013 40.7441L28.9912 31.5755V40.668C28.9912 40.7336 28.939 40.7874 28.8724 40.7874H25.6505C25.6193 40.7874 25.5894 40.7749 25.5674 40.7528C25.5454 40.7307 25.533 40.7006 25.533 40.6694V25.7319C25.533 25.6663 25.5852 25.6139 25.6505 25.6139H28.3726C28.3901 25.6138 28.4074 25.6176 28.4232 25.6251C28.439 25.6326 28.4529 25.6435 28.464 25.6571L35.9532 34.8257V25.7319C35.9532 25.6663 36.0054 25.6139 36.0719 25.6139H39.2939ZM59.436 28.476H64.16V40.6694C64.16 40.7349 64.2122 40.7874 64.2787 40.7874H67.5437C67.5593 40.7875 67.5747 40.7846 67.5891 40.7788C67.6035 40.7729 67.6166 40.7642 67.6276 40.7533C67.6387 40.7423 67.6475 40.7292 67.6534 40.7148C67.6594 40.7004 67.6625 40.685 67.6625 40.6694V28.476H72.3865C72.4021 28.4764 72.4177 28.4736 72.4322 28.4678C72.4468 28.462 72.46 28.4534 72.4712 28.4424C72.4824 28.4314 72.4913 28.4183 72.4973 28.4038C72.5034 28.3893 72.5065 28.3737 72.5065 28.358V25.7332C72.5065 25.7176 72.5034 25.7021 72.4975 25.6877C72.4915 25.6733 72.4827 25.6602 72.4717 25.6493C72.4606 25.6383 72.4475 25.6296 72.4331 25.6238C72.4187 25.6179 72.4033 25.615 72.3878 25.6152H59.436C59.4205 25.615 59.4051 25.6179 59.3907 25.6238C59.3763 25.6296 59.3632 25.6383 59.3521 25.6493C59.3411 25.6602 59.3323 25.6733 59.3263 25.6877C59.3203 25.7021 59.3173 25.7176 59.3173 25.7332V28.3567C59.3173 28.4223 59.3694 28.476 59.4347 28.476H59.436ZM83.6287 37.6092C83.6196 37.5873 83.6042 37.5686 83.5845 37.5555C83.5647 37.5424 83.5415 37.5355 83.5178 37.5358H76.6498C76.6263 37.5356 76.6033 37.5425 76.5838 37.5556C76.5642 37.5687 76.549 37.5874 76.5402 37.6092L75.2613 40.7139C75.2524 40.736 75.237 40.7548 75.2172 40.7679C75.1974 40.781 75.1741 40.7878 75.1504 40.7874H71.8253C71.8056 40.7876 71.7861 40.7828 71.7687 40.7734C71.7513 40.7641 71.7366 40.7505 71.7258 40.7339C71.715 40.7173 71.7085 40.6983 71.707 40.6785C71.7055 40.6587 71.7089 40.6389 71.717 40.6208L78.3567 25.686C78.366 25.6649 78.3812 25.647 78.4004 25.6345C78.4196 25.6219 78.4421 25.6152 78.465 25.6152H81.7705C81.8175 25.6152 81.8605 25.6414 81.8788 25.6847L88.5406 40.6208C88.5487 40.6389 88.5522 40.6587 88.5507 40.6785C88.5491 40.6983 88.5427 40.7173 88.5319 40.7339C88.5211 40.7505 88.5063 40.7641 88.4889 40.7734C88.4715 40.7828 88.452 40.7876 88.4323 40.7874H85.0185C84.995 40.7875 84.9721 40.7806 84.9525 40.7675C84.933 40.7544 84.9178 40.7358 84.9089 40.7139L83.6287 37.6092ZM82.4947 34.869L80.0949 29.0608L77.6951 34.869H82.4947ZM108.109 25.8604C108.011 25.8223 107.998 25.6807 108.088 25.6244C108.604 25.3097 109.013 24.9032 109.312 24.405C109.673 23.8281 109.855 23.1726 109.855 22.4384C109.855 21.2282 109.356 20.2698 108.359 19.5631C107.376 18.8577 105.961 18.505 104.11 18.505H96.8154C96.7843 18.505 96.7544 18.5175 96.7324 18.5396C96.7103 18.5617 96.698 18.5917 96.698 18.623V33.5146C96.698 33.5802 96.7502 33.6326 96.8154 33.6326H104.543C106.523 33.6326 108.026 33.2786 109.052 32.5732C110.093 31.8534 110.613 30.8295 110.613 29.5052C110.613 28.5691 110.367 27.7838 109.875 27.1492C109.421 26.5587 108.808 26.1115 108.109 25.8604ZM100.187 21.2597C100.187 21.1941 100.24 21.1417 100.305 21.1417H103.677C104.543 21.1417 105.201 21.2924 105.649 21.5953C106.098 21.8838 106.321 22.323 106.321 22.913C106.321 23.503 106.098 23.9501 105.649 24.2529C105.201 24.5558 104.543 24.7079 103.677 24.7079H100.306C100.291 24.7081 100.275 24.7051 100.261 24.6992C100.246 24.6932 100.233 24.6844 100.222 24.6733C100.211 24.6622 100.202 24.649 100.196 24.6344C100.19 24.6199 100.187 24.6043 100.187 24.5886V21.2597ZM106.365 30.5423C105.902 30.8439 105.209 30.996 104.284 30.996H100.306C100.291 30.9961 100.275 30.9932 100.261 30.9874C100.246 30.9815 100.233 30.9729 100.222 30.9619C100.211 30.9509 100.202 30.9378 100.197 30.9234C100.191 30.909 100.187 30.8936 100.187 30.878V27.3773C100.187 27.3104 100.24 27.258 100.305 27.258H104.285C106.147 27.258 107.08 27.8834 107.08 29.1381C107.08 29.7714 106.841 30.2395 106.365 30.5423ZM125.02 30.9422C125.02 30.9266 125.017 30.9112 125.011 30.8968C125.005 30.8824 124.996 30.8693 124.985 30.8583C124.974 30.8473 124.961 30.8387 124.946 30.8328C124.932 30.827 124.916 30.824 124.901 30.8242H116.879C116.864 30.8242 116.848 30.8211 116.834 30.8151C116.82 30.8091 116.807 30.8003 116.796 30.7892C116.785 30.7781 116.776 30.7649 116.77 30.7505C116.765 30.736 116.762 30.7205 116.762 30.7049V27.4402C116.762 27.3747 116.814 27.3222 116.879 27.3222H123.687C123.718 27.3222 123.748 27.3098 123.77 27.2877C123.792 27.2656 123.805 27.2355 123.805 27.2042V24.7171C123.805 24.6858 123.792 24.6558 123.77 24.6336C123.748 24.6115 123.718 24.5991 123.687 24.5991H116.881C116.865 24.5994 116.849 24.5965 116.834 24.5906C116.819 24.5847 116.806 24.5758 116.795 24.5645C116.784 24.5533 116.775 24.5398 116.769 24.525C116.763 24.5102 116.76 24.4944 116.76 24.4784V21.4314C116.76 21.3659 116.814 21.3134 116.879 21.3134H124.618C124.633 21.3138 124.649 21.3109 124.664 21.3051C124.678 21.2992 124.692 21.2905 124.703 21.2793C124.714 21.2682 124.723 21.2549 124.729 21.2403C124.735 21.2256 124.738 21.2099 124.738 21.1941V18.6217C124.738 18.6061 124.735 18.5906 124.729 18.5762C124.723 18.5618 124.714 18.5488 124.703 18.5378C124.692 18.5268 124.679 18.5182 124.664 18.5123C124.65 18.5065 124.635 18.5035 124.619 18.5037H113.388C113.373 18.5037 113.358 18.5068 113.344 18.5127C113.329 18.5186 113.316 18.5273 113.305 18.5383C113.295 18.5492 113.286 18.5622 113.28 18.5766C113.274 18.5909 113.271 18.6062 113.271 18.6217V33.5146C113.271 33.5802 113.323 33.6326 113.388 33.6326H124.898C124.914 33.633 124.929 33.6302 124.944 33.6244C124.959 33.6186 124.972 33.61 124.983 33.599C124.994 33.588 125.003 33.5749 125.009 33.5604C125.015 33.5459 125.018 33.5303 125.018 33.5146L125.02 30.9422ZM141.61 18.505C141.675 18.505 141.728 18.5575 141.728 18.623V33.5146C141.728 33.5302 141.725 33.5457 141.719 33.5601C141.713 33.5745 141.705 33.5876 141.694 33.5985C141.682 33.6095 141.669 33.6182 141.655 33.624C141.641 33.6299 141.625 33.6328 141.61 33.6326H138.902C138.884 33.6327 138.867 33.6288 138.851 33.6214C138.835 33.6139 138.822 33.6029 138.81 33.5894L131.281 24.4483V33.5146C131.281 33.5802 131.229 33.6326 131.162 33.6326H127.932C127.917 33.6328 127.901 33.6299 127.887 33.624C127.873 33.6182 127.859 33.6095 127.848 33.5985C127.837 33.5876 127.829 33.5745 127.823 33.5601C127.817 33.5457 127.814 33.5302 127.814 33.5146V18.623C127.814 18.5575 127.866 18.505 127.931 18.505H130.661C130.698 18.505 130.73 18.5208 130.754 18.5483L138.261 27.6894V18.623C138.261 18.5575 138.313 18.505 138.38 18.505H141.61ZM157.066 30.9422C157.066 30.9266 157.063 30.9112 157.057 30.8968C157.051 30.8824 157.042 30.8693 157.031 30.8583C157.02 30.8473 157.007 30.8387 156.992 30.8328C156.978 30.827 156.962 30.824 156.947 30.8242H148.927C148.911 30.8244 148.895 30.8214 148.881 30.8155C148.866 30.8096 148.853 30.8008 148.842 30.7897C148.831 30.7786 148.822 30.7653 148.816 30.7508C148.811 30.7362 148.808 30.7206 148.808 30.7049V27.4402C148.808 27.3747 148.86 27.3222 148.927 27.3222H155.735C155.798 27.3222 155.853 27.2698 155.853 27.2042V24.7171C155.853 24.6515 155.798 24.5991 155.735 24.5991H148.927C148.911 24.5992 148.895 24.5962 148.881 24.5902C148.866 24.5842 148.853 24.5753 148.842 24.5641C148.831 24.5528 148.822 24.5394 148.816 24.5247C148.81 24.51 148.807 24.4943 148.808 24.4784V21.4314C148.808 21.3659 148.86 21.3134 148.927 21.3134H156.666C156.732 21.3134 156.784 21.2597 156.784 21.1941V18.6217C156.784 18.5904 156.771 18.5604 156.749 18.5383C156.727 18.5161 156.697 18.5037 156.666 18.5037H145.437C145.422 18.5035 145.406 18.5065 145.392 18.5123C145.377 18.5182 145.364 18.5268 145.353 18.5378C145.342 18.5488 145.333 18.5618 145.327 18.5762C145.321 18.5906 145.318 18.6061 145.318 18.6217V33.5146C145.318 33.5802 145.372 33.6326 145.437 33.6326H156.947C156.962 33.6328 156.978 33.6299 156.992 33.624C157.007 33.6182 157.02 33.6095 157.031 33.5985C157.042 33.5876 157.051 33.5745 157.057 33.5601C157.063 33.5457 157.066 33.5302 157.066 33.5146V30.9422Z" fill="#161616"/>
<path fill-rule="evenodd" clip-rule="evenodd" d="M12.8594 13.2991C12.8594 13.1208 13.0029 12.9766 13.1804 12.9766H90.1563C90.2016 12.9761 90.2461 12.9887 90.2844 13.013C90.3227 13.0372 90.3532 13.0721 90.3722 13.1134C90.3912 13.1547 90.398 13.2006 90.3916 13.2456C90.3853 13.2907 90.3661 13.3329 90.3364 13.3673L88.1793 15.924C87.84 16.3238 87.3428 16.5559 86.8169 16.5559H17.0327C16.9548 16.5557 16.8778 16.571 16.8058 16.6007C16.7339 16.6305 16.6685 16.6742 16.6133 16.7293C16.5582 16.7845 16.5144 16.85 16.4845 16.9222C16.4546 16.9943 16.4391 17.0717 16.4389 17.1498V40.5506C16.4389 40.6817 16.3332 40.7866 16.2014 40.7866H13.0982C13.0356 40.7866 12.9756 40.7618 12.9312 40.7176C12.8867 40.6734 12.8614 40.6134 12.8607 40.5506L12.8594 13.2991Z" fill="#161616"/>
</svg>
