<svg width="122" height="37" viewBox="0 0 122 37" fill="none" xmlns="http://www.w3.org/2000/svg">
<g clip-path="url(#clip0_1_170)">
<path d="M18.3152 20.7036C17.0101 18.668 16.0361 17.3241 15.3579 16.7905C18.7568 15.9289 22.1162 13.0751 22.1162 8.42292C22.1162 2.72332 18.2166 0 12.0419 0H12.034C6.58873 0 3.43829 2.58103 2.70489 7.04743H0L5.40189 11.6522L11.1113 7.04743H8.0437C8.0437 7.04743 8.06736 3.8498 12.105 3.8498C15.5511 3.8498 16.7301 6.36759 16.7301 8.46245C16.7301 11.5138 15.1214 13.8261 11.2612 13.8261H2.697V28.6759H8.0989V17.498H8.11467C9.30545 17.498 10.4607 17.9407 12.4559 20.9012L17.2663 28.6759H23.2794L18.3152 20.7036Z" fill="#723080"/>
<path d="M95.3516 28.6763V1.63281H100.371V28.6763H95.3516Z" fill="#723080"/>
<path d="M33.3088 25.2531C35.8008 25.2531 37.1966 24.4507 38.1035 23.9962L39.728 27.2215C38.5214 27.9013 36.6327 29.0001 32.8553 29.0001C26.7003 29.0001 23.2266 25.1029 23.2266 19.2333C23.2266 13.3638 27.2287 9.65625 32.327 9.65625C38.068 9.65625 40.8596 13.7551 40.2563 20.5693H28.589C28.8138 23.4072 30.249 25.2531 33.3088 25.2531ZM35.4222 17.0752C35.3828 14.9922 34.5548 13.3321 32.2521 13.3321C30.1386 13.3321 28.9281 14.6523 28.589 17.0752H35.4222Z" fill="#723080"/>
<path d="M52.0301 29.0001C46.1392 29.0001 42.5156 25.0634 42.5156 19.3479C42.5156 13.1385 46.6321 9.65625 52.1838 9.65625C55.1687 9.65625 56.943 10.5653 57.8105 11.1345L56.186 14.4072C55.354 13.8776 54.1829 13.3084 52.3337 13.3084C49.3883 13.3084 47.8387 15.7906 47.8387 19.1978C47.8387 22.6049 49.3094 25.2412 52.4441 25.2412C54.5575 25.2412 55.7128 24.3559 56.2806 24.0159L57.8302 27.2452C56.9627 27.8144 55.3934 29.0001 52.0301 29.0001Z" fill="#723080"/>
<path d="M65.5742 10.2422V21.6098C65.5742 23.4635 66.2169 24.4121 68.0267 24.4121C69.9509 24.4121 71.4256 22.5584 71.8041 22.1038V10.2461H76.8275V23.3805C76.8275 25.7284 77.0917 27.5821 77.3164 28.6809H72.368C72.2181 28.1908 72.0289 26.9774 71.9894 26.2224C71.0076 27.4714 69.1189 29.1355 66.0592 29.1355C62.0176 29.1355 60.5469 26.5228 60.5469 23.1552V10.2422H65.5702H65.5742Z" fill="#723080"/>
<path d="M91.4497 14.6705C91.1461 14.4808 90.5822 14.2555 89.5255 14.2555C87.2977 14.2555 85.9768 16.2238 85.5234 17.0578V28.6784H80.5V10.2436H85.5234V12.7416C86.3159 11.378 87.8261 9.78906 90.1682 9.78906C91.5285 9.78906 92.2462 10.0539 92.6602 10.2792L91.4536 14.6705H91.4497Z" fill="#723080"/>
<path d="M116.42 10.2422L112.855 22.3647L108.557 10.2422H103.041L110.103 27.2264C108.916 31.8667 107.745 33.2501 105.103 33.2501C103.976 33.2501 103.345 33.0722 103.073 32.9932L102.406 36.5426C102.797 36.6612 103.845 37.0011 105.438 37.0011C110.608 37.0011 112.879 33.6137 114.551 29.1315L120.181 14.9023L121.995 10.2422H116.416H116.42Z" fill="#723080"/>
</g>
<defs>
<clipPath id="clip0_1_170">
<rect width="122" height="37" fill="white"/>
</clipPath>
</defs>
</svg>
