<svg width="180" height="28" viewBox="0 0 180 28" fill="none" xmlns="http://www.w3.org/2000/svg">
<path d="M97.0094 5.12983V11.1177H97.0661C98.0594 9.8123 99.4641 9.17378 101.309 9.17378C102.132 9.17378 102.898 9.30148 103.636 9.57108C104.359 9.84068 105.012 10.238 105.58 10.7772C106.147 11.3164 106.587 11.9833 106.913 12.7921C107.24 13.6008 107.396 14.5373 107.396 15.5873C107.396 16.7792 107.183 17.886 106.743 18.9076C106.303 19.9293 105.622 20.7522 104.7 21.3624C103.778 21.9725 102.628 22.2847 101.252 22.2847C99.2655 22.2847 97.8607 21.6462 97.0094 20.3833H96.9526V21.9441H93.1782V5.12983H97.0094ZM82.5505 8.81905C89.8721 8.81905 89.2478 16.6799 89.2478 16.6799H79.216C79.6275 18.2407 80.9755 19.2766 82.8201 19.2766C85.062 19.2766 86.2681 17.9286 86.2681 17.9286L88.3965 20.0995C87.3039 21.1921 85.8282 22.1854 82.7917 22.1854C78.095 22.1854 75.5977 19.0779 75.5977 15.786C75.5977 12.4941 77.4707 8.81905 82.5505 8.81905ZM173.759 8.80486C176.909 8.80486 178.91 10.011 178.91 10.011L177.619 12.7779C173.419 10.6069 171.531 12.1393 171.531 12.9056C171.531 13.6718 172.284 13.7285 175.207 14.2677C178.13 14.8069 179.492 16.0272 179.492 17.9995C179.492 19.9718 177.803 22.1428 173.674 22.1428C169.545 22.1428 167.658 20.8232 167.658 20.8232L168.906 18.0705C172.142 20.1137 175.817 19.461 175.817 18.2407C175.817 17.3184 174.596 17.134 173.277 16.9779L172.709 16.9069C172.454 16.8786 172.213 16.8502 171.971 16.8076C170.297 16.538 167.814 15.6441 167.814 13.0758C167.814 10.5076 170.609 8.80486 173.759 8.80486ZM155.299 4.2501V14.4096L160.776 9.1454H165.246L159.811 14.3529L165.771 22.1144H161.329L157.257 16.8076L155.285 18.6948V22.1144H151.624V13.1823V4.2501H155.299ZM142.174 8.71972C144.771 8.71972 147.041 10.0109 148.304 11.9549L145.21 13.7711C144.629 12.6643 143.493 11.9265 142.174 11.9265C140.272 11.9265 138.726 13.5015 138.726 15.4313C138.726 17.3752 140.272 18.936 142.174 18.936C143.423 18.936 144.515 18.2549 145.125 17.2333L148.233 19.007C146.956 20.8799 144.728 22.1286 142.174 22.1286C138.215 22.1286 135.008 19.1205 135.008 15.4171C135.008 11.7279 138.215 8.71972 142.174 8.71972ZM125.161 8.71972C129.12 8.71972 132.326 11.7278 132.326 15.4313C132.326 19.1347 129.12 22.1428 125.161 22.1428C121.202 22.1428 117.995 19.1347 117.995 15.4313C117.981 11.7278 121.202 8.71972 125.161 8.71972ZM60.0746 9.10283V22.0151H56.1016V9.10283H60.0746ZM52.5259 5.18659V8.42175H43.6293V12.7069H51.4901V15.8995H43.6293V22.0151H39.6562V5.18659H52.5259ZM68.5598 10.7062C68.5598 10.7062 69.9646 8.50689 72.8734 8.84743V12.4515C72.8734 12.4515 69.7092 11.6427 68.5598 14.9063V22.0151H64.7713V9.10283H68.3896L68.5598 10.6211V10.7062ZM114.193 4.19334V21.93H110.191V4.19334H114.193ZM100.145 11.9975C97.9458 11.9975 96.8533 13.3312 96.8533 16.013C96.8533 17.0205 97.1371 17.8718 97.7046 18.5671C98.2722 19.2482 99.1236 19.6029 100.259 19.6029C101.025 19.6029 101.635 19.4043 102.117 19.007C102.586 18.6097 102.926 18.1272 103.125 17.5455C103.324 16.9779 103.423 16.3961 103.423 15.8286C103.423 14.736 103.168 13.8137 102.643 13.09C102.118 12.3664 101.28 11.9975 100.145 11.9975ZM125.161 11.9265C123.26 11.9265 121.713 13.5015 121.713 15.4313C121.713 17.3752 123.26 18.936 125.161 18.936C127.062 18.936 128.609 17.361 128.609 15.4313C128.595 13.4873 127.062 11.9265 125.161 11.9265ZM82.6072 11.6285C80.6633 11.6285 79.5991 12.8204 79.2302 14.3813H85.7289C85.7005 13.9698 85.0478 11.6285 82.6072 11.6285ZM58.0881 3.01562C59.3794 3.01562 60.4294 3.9805 60.4294 5.15821C60.4294 6.33592 59.3794 7.30079 58.0881 7.30079C56.7969 7.30079 55.7469 6.33592 55.7469 5.15821C55.7469 3.96631 56.7969 3.01562 58.0881 3.01562Z" fill="black"/>
<path d="M26.3637 0C26.9597 0 27.4421 0.482437 27.4421 1.07839V26.0232C27.4421 26.6191 26.9597 27.1015 26.3637 27.1015H1.07839C0.482437 27.1015 0 26.6191 0 26.0232V1.09257C0 0.496623 0.482437 0.0141902 1.07839 0.0141902H26.3637V0ZM13.721 7.53451L6.0872 19.5812H21.3407L13.721 7.53451Z" fill="#1D1D1B"/>
</svg>
