<svg width="134" height="30" viewBox="0 0 134 30" fill="none" xmlns="http://www.w3.org/2000/svg">
<path d="M23.5808 0H16.9829C16.9829 5.43027 14.4976 10.3858 10.1779 13.6499L7.57422 15.6083L17.693 29.4362H26.007L16.687 16.7062C21.0955 12.3145 23.5808 6.37982 23.5808 0Z" fill="#9FA0A2"/>
<path d="M6.74586 0H0V29.4362H6.74586V0Z" fill="#9FA0A2"/>
<path d="M34.3222 0H27.9609V29.4362H34.3222V0Z" fill="#9FA0A2"/>
<path d="M90.1207 8.51562C87.6946 8.51562 85.3868 9.25746 83.8483 11.3643V9.07942H77.8125V29.4355H83.937V18.753C83.937 15.667 86.0081 14.1536 88.4934 14.1536C91.1563 14.1536 92.6948 15.756 92.6948 18.7233V29.4652H98.7602V16.4978C98.7602 11.75 95.0026 8.51562 90.1207 8.51562Z" fill="#9FA0A2"/>
<path d="M53.551 9.07942V10.3851C51.8349 9.19812 49.7638 8.51562 47.5152 8.51562C41.5978 8.51562 36.8047 13.3227 36.8047 19.2575C36.8047 25.1922 41.5978 29.9993 47.5152 29.9993C49.7638 29.9993 51.8349 29.3168 53.551 28.1299V29.4355H59.6163V9.07942H53.551ZM48.0182 24.48C44.9707 24.48 42.515 22.1358 42.515 19.2575C42.515 16.3791 44.9707 14.0349 48.0182 14.0349C51.0657 14.0349 53.5214 16.3791 53.5214 19.2575C53.5214 22.1358 51.0657 24.48 48.0182 24.48Z" fill="#9FA0A2"/>
<path d="M69.0258 11.7191V9.07812H62.8125V29.4342H69.0554V19.9387C69.0554 16.7339 72.5171 15.0128 74.9136 15.0128C74.9432 15.0128 74.9728 15.0128 74.9728 15.0128V9.07812C72.5171 9.07813 70.2389 10.1464 69.0258 11.7191Z" fill="#9FA0A2"/>
<path d="M117.637 9.07942V10.3851C115.921 9.19812 113.85 8.51562 111.601 8.51562C105.684 8.51562 100.891 13.3227 100.891 19.2575C100.891 25.1922 105.684 29.9993 111.601 29.9993C113.85 29.9993 115.921 29.3168 117.637 28.1299V29.4355H123.702V9.07942H117.637ZM112.104 24.48C109.057 24.48 106.601 22.1358 106.601 19.2575C106.601 16.3791 109.057 14.0349 112.104 14.0349C115.152 14.0349 117.607 16.3791 117.607 19.2575C117.637 22.1358 115.152 24.48 112.104 24.48Z" fill="#9FA0A2"/>
<path d="M128.407 9.674C128.407 9.37726 128.2 9.19922 127.875 9.19922H127.312V10.7422H127.579V10.1784H127.875L128.111 10.7422H128.407L128.141 10.1191C128.318 10.0301 128.407 9.88171 128.407 9.674ZM127.875 9.91139H127.579V9.43661H127.875C128.052 9.43661 128.141 9.52563 128.141 9.674C128.141 9.82236 128.082 9.91139 127.875 9.91139Z" fill="#9FA0A2"/>
<path d="M127.786 8.54688C126.987 8.54688 126.336 9.19969 126.336 10.0009C126.366 10.8021 126.987 11.4549 127.786 11.4549C128.585 11.4549 129.235 10.8021 129.235 10.0009C129.235 9.19969 128.585 8.54688 127.786 8.54688ZM127.786 11.1878C127.135 11.1878 126.632 10.6537 126.632 10.0009C126.632 9.34806 127.164 8.81394 127.786 8.81394C128.437 8.81394 128.94 9.34806 128.94 10.0009C128.94 10.6537 128.407 11.1878 127.786 11.1878Z" fill="#9FA0A2"/>
<path d="M130.184 22.2266C128.083 22.2266 126.367 23.9476 126.367 26.0545C126.367 28.1613 128.083 29.8823 130.184 29.8823C132.285 29.8823 134.001 28.1613 134.001 26.0545C134.001 23.918 132.285 22.2266 130.184 22.2266Z" fill="#9FA0A2"/>
</svg>
