<svg width="164" height="26" viewBox="0 0 164 26" fill="none" xmlns="http://www.w3.org/2000/svg">
<path d="M45.3383 9.67509C45.3383 10.1943 45.6116 10.6043 46.1581 10.9322C46.7047 11.2602 47.3333 11.5061 48.0985 11.7247C48.8364 11.9434 49.6016 12.162 50.3394 12.3806C51.0773 12.5993 51.7332 13.0092 52.2524 13.6378C52.7717 14.239 53.045 15.0315 53.045 15.988C53.045 17.2452 52.5531 18.229 51.5966 18.9942C50.6401 19.7321 49.4103 20.1147 47.9072 20.1147C46.5681 20.1147 45.4203 19.8141 44.4911 19.2402C43.5346 18.6663 42.8514 17.8737 42.4688 16.9172L44.5184 15.7421C44.737 16.398 45.147 16.9172 45.7482 17.2998C46.3494 17.6824 47.0873 17.8737 47.9072 17.8737C48.6997 17.8737 49.3283 17.7371 49.8475 17.4365C50.3668 17.1358 50.6127 16.6713 50.6127 16.0154C50.6127 15.4688 50.3394 15.0589 49.8202 14.7309C49.2736 14.403 48.6451 14.1297 47.9072 13.911C47.1693 13.6924 46.4041 13.4738 45.6662 13.2278C44.9283 12.9819 44.2724 12.5993 43.7259 12.0254C43.1793 11.4515 42.9333 10.6863 42.9333 9.7844C42.9333 8.58194 43.3979 7.62543 44.2998 6.8329C45.229 6.06769 46.3768 5.68509 47.7705 5.68509C48.891 5.68509 49.8748 5.93105 50.7494 6.42297C51.6239 6.91489 52.2798 7.62543 52.717 8.52728L50.722 9.64776C50.2301 8.47262 49.2463 7.89872 47.7705 7.89872C47.0873 7.89872 46.5134 8.03537 46.0488 8.36331C45.5569 8.66393 45.3383 9.10119 45.3383 9.67509ZM62.6647 5.65776C60.6697 5.65776 59.194 6.45029 58.2374 8.00803V6.04037H55.8325V19.7594H58.2374V12.4899C58.2374 10.9595 58.5927 9.83906 59.3306 9.07385C60.0685 8.33598 60.9977 7.95338 62.2001 7.95338C63.2659 7.95338 64.0858 8.25399 64.687 8.85523C65.2883 9.45646 65.5889 10.331 65.5889 11.4515V19.7321H67.9938V11.3148C67.9938 9.5931 67.5019 8.19933 66.5454 7.18817C65.5616 6.14968 64.2771 5.65776 62.6647 5.65776ZM77.8048 17.7644C76.4384 17.7644 75.2906 17.2998 74.3341 16.3433C73.4049 15.4141 72.9403 14.239 72.9403 12.8452C72.9403 11.4788 73.4049 10.3036 74.3341 9.34714C75.2633 8.39063 76.4111 7.92605 77.8048 7.92605C79.1986 7.92605 80.3737 8.39063 81.3029 9.34714C82.2321 10.2763 82.6967 11.4515 82.6967 12.8452C82.6967 14.239 82.2321 15.3868 81.3029 16.3433C80.3464 17.2998 79.1986 17.7644 77.8048 17.7644ZM82.6694 8.33598C81.4669 6.53228 79.7452 5.63044 77.4769 5.63044C75.5639 5.63044 73.9242 6.34098 72.585 7.73475C71.2459 9.12851 70.5627 10.8502 70.5627 12.8452C70.5627 14.8676 71.2459 16.5619 72.585 17.9557C73.9242 19.3495 75.5639 20.06 77.4769 20.06C79.7452 20.06 81.4669 19.1582 82.6694 17.3545V19.7047H85.0743V5.98571H82.6694V8.33598ZM95.6232 17.7644C94.2568 17.7644 93.0816 17.2998 92.1251 16.3433C91.1959 15.4141 90.7313 14.239 90.7313 12.8452C90.7313 11.4788 91.1959 10.3036 92.1251 9.34714C93.0816 8.39063 94.2294 7.92605 95.6232 7.92605C96.9896 7.92605 98.1374 8.39063 99.0939 9.34714C100.023 10.2763 100.488 11.4515 100.488 12.8452C100.488 14.2117 100.023 15.3868 99.0939 16.3433C98.1648 17.2998 97.017 17.7644 95.6232 17.7644ZM95.9238 5.65776C93.6555 5.65776 91.9338 6.55961 90.7313 8.36331V6.01304H88.3264V24.46H90.7313V17.3818C91.9338 19.1855 93.6555 20.0873 95.9238 20.0873C97.8368 20.0873 99.4765 19.4041 100.816 17.983C102.155 16.5893 102.838 14.8676 102.838 12.8726C102.838 10.8502 102.155 9.15584 100.816 7.76208C99.4765 6.34098 97.8642 5.65776 95.9238 5.65776ZM111.665 17.7644C110.299 17.7644 109.151 17.2998 108.194 16.3433C107.265 15.4141 106.801 14.239 106.801 12.8452C106.801 11.4788 107.265 10.3036 108.194 9.34714C109.124 8.39063 110.271 7.92605 111.665 7.92605C113.059 7.92605 114.234 8.39063 115.163 9.34714C116.092 10.2763 116.557 11.4515 116.557 12.8452C116.557 14.2117 116.092 15.3868 115.163 16.3433C114.207 17.2998 113.059 17.7644 111.665 17.7644ZM116.557 8.36331C115.355 6.55961 113.633 5.65776 111.365 5.65776C109.452 5.65776 107.812 6.36831 106.473 7.76208C105.134 9.15584 104.45 10.8776 104.45 12.8726C104.45 14.8949 105.134 16.5893 106.473 17.983C107.812 19.3768 109.452 20.0873 111.365 20.0873C113.633 20.0873 115.355 19.1855 116.557 17.3818V19.7321H118.962V1.28516H116.557V8.36331ZM128.937 17.7371C127.571 17.7371 126.45 17.2725 125.521 16.3433C124.592 15.3868 124.127 14.239 124.127 12.8452C124.127 11.4515 124.592 10.2763 125.521 9.34714C126.45 8.41796 127.598 7.95338 128.937 7.95338C130.303 7.95338 131.451 8.41796 132.408 9.34714C133.337 10.3036 133.801 11.4515 133.801 12.8452C133.801 14.239 133.337 15.4141 132.408 16.3433C131.479 17.2725 130.331 17.7371 128.937 17.7371ZM134.075 18.0104C135.469 16.6166 136.179 14.8949 136.179 12.8726C136.179 10.8502 135.469 9.12851 134.075 7.73475C132.654 6.36831 130.959 5.65776 128.937 5.65776C126.915 5.65776 125.22 6.34098 123.826 7.73475C122.433 9.12851 121.722 10.8502 121.722 12.8726C121.722 14.9222 122.433 16.6166 123.826 18.0104C125.22 19.3768 126.942 20.0873 128.937 20.0873C130.959 20.0873 132.681 19.4041 134.075 18.0104ZM145.225 20.0873C146.564 20.0873 147.766 19.7594 148.887 19.1035C149.98 18.4476 150.827 17.6004 151.401 16.5073L149.379 15.3321C148.996 16.07 148.422 16.6439 147.712 17.0812C146.974 17.5184 146.154 17.7371 145.225 17.7371C143.858 17.7371 142.711 17.2725 141.781 16.3433C140.88 15.4141 140.415 14.2663 140.415 12.8726C140.415 11.4788 140.852 10.3036 141.781 9.37447C142.683 8.44529 143.831 7.9807 145.225 7.9807C146.127 7.9807 146.974 8.22667 147.684 8.6366C148.422 9.07386 148.942 9.67509 149.297 10.413L151.292 9.26516C150.745 8.17201 149.953 7.29749 148.887 6.6416C147.794 5.9857 146.564 5.65776 145.225 5.65776C143.175 5.65776 141.454 6.34098 140.06 7.73475C138.693 9.12851 138.01 10.8229 138.01 12.8726C138.01 14.9222 138.693 16.6166 140.06 18.0104C141.426 19.3768 143.148 20.0873 145.225 20.0873ZM156.293 9.67509C156.293 9.10119 156.539 8.66393 157.004 8.33598C157.496 8.00804 158.042 7.87139 158.725 7.87139C160.201 7.87139 161.158 8.47262 161.677 9.62043L163.672 8.49996C163.235 7.59811 162.579 6.91488 161.704 6.39564C160.83 5.90372 159.846 5.65776 158.725 5.65776C157.332 5.65776 156.184 6.04036 155.255 6.80557C154.353 7.5981 153.888 8.55461 153.888 9.75707C153.888 10.6589 154.161 11.4241 154.681 11.998C155.2 12.5719 155.856 12.9819 156.621 13.2005C157.359 13.4191 158.124 13.6651 158.862 13.8837C159.6 14.1023 160.228 14.3756 160.775 14.7036C161.294 15.0315 161.568 15.4415 161.568 15.988C161.568 16.6439 161.322 17.1085 160.802 17.4091C160.283 17.7097 159.627 17.8464 158.862 17.8464C158.042 17.8464 157.304 17.6551 156.703 17.2725C156.102 16.8899 155.692 16.3706 155.473 15.7147L153.424 16.8899C153.833 17.8464 154.517 18.6389 155.446 19.2128C156.402 19.7867 157.55 20.0873 158.862 20.0873C160.365 20.0873 161.595 19.7047 162.551 18.9669C163.508 18.229 164 17.2178 164 15.9607C164 15.0042 163.726 14.239 163.207 13.6104C162.688 12.9819 162.032 12.5719 161.294 12.3533C160.556 12.1347 159.791 11.916 159.053 11.6974C158.315 11.4788 157.659 11.2055 157.113 10.9049C156.566 10.6043 156.293 10.1943 156.293 9.67509Z" fill="#1A2538"/>
<path d="M6.20363 19.9227H12.052V25.771H0.355274V14.0743H6.20363V19.9227ZM20.2779 11.6967H26.1263V0H14.4296V5.84835H20.2779V11.6967ZM12.052 1.28445V5.84835H6.20363V12.4073C4.67322 12.4073 3.27945 11.8334 2.1863 10.9315C0.847192 9.81103 0 8.11664 0 6.20362C0 2.78753 2.78753 0 6.20363 0H12.052V1.28445ZM24.3773 14.9488C23.2841 13.9923 21.863 13.3911 20.2779 13.3911V19.95H14.4296V24.4319V25.771H20.2779C23.694 25.771 26.4816 22.9835 26.4816 19.5674C26.4816 17.7364 25.6617 16.0693 24.3773 14.9488Z" fill="#F26B2C"/>
</svg>
