<svg width="201" height="35" viewBox="0 0 201 35" fill="none" xmlns="http://www.w3.org/2000/svg">
<path d="M66.2507 7.56516H69.3567C69.7091 7.56416 70.0599 7.61297 70.3987 7.71014C70.7271 7.80415 71.0393 7.94744 71.3246 8.13513C71.6074 8.32148 71.8638 8.54518 72.0867 8.80014C72.3086 9.05241 72.488 9.33917 72.6177 9.64914C73.3637 11.4625 74.116 13.2598 74.8747 15.0411C75.6334 16.8225 76.392 18.6198 77.1507 20.4331C77.2808 20.7287 77.3715 21.04 77.4207 21.3591C77.4593 21.6425 77.485 21.8931 77.4977 22.1111C77.5313 21.6847 77.6155 21.2637 77.7487 20.8571C77.9083 20.3587 78.095 19.8693 78.3077 19.3911L82.4167 9.62915C82.532 9.33928 82.7017 9.07417 82.9167 8.84814C83.1518 8.59454 83.4174 8.37115 83.7076 8.18314C84.0053 7.98928 84.3261 7.83374 84.6627 7.72015C84.9884 7.60677 85.3307 7.54796 85.6757 7.54614H88.7817L86.5817 12.7741L89.0317 18.6001C89.289 19.2048 89.5397 19.7998 89.7837 20.3851C90.0127 20.9077 90.1497 21.4659 90.1887 22.0352C90.2013 21.9325 90.2174 21.8135 90.2367 21.6781C90.256 21.5428 90.2913 21.3725 90.3427 21.1671C90.4074 20.919 90.4848 20.6743 90.5746 20.4341C90.6773 20.1515 90.8187 19.8042 90.9987 19.3922L95.1127 9.63013C95.2271 9.34167 95.3939 9.0769 95.6047 8.84915C95.8346 8.59407 96.0972 8.37046 96.3857 8.18414C96.6833 7.99025 97.0042 7.83468 97.3407 7.72113C97.6665 7.60774 98.0088 7.54897 98.3537 7.54715H101.46L92.9327 27.8232H87.4537L84.5016 20.3381C84.399 20.0715 84.309 19.7952 84.2317 19.5092C84.1545 19.2263 84.1154 18.9344 84.1157 18.6411C84.1135 18.3592 84.1591 18.0788 84.2507 17.8121C84.006 18.5068 83.5527 19.6835 82.8907 21.3421C82.2287 23.0008 81.3443 25.1615 80.2377 27.8241H74.7587L66.2507 7.56516Z" fill="#414141"/>
<path d="M102.81 7.56202H106.936C107.002 7.56202 107.099 7.73869 107.226 8.09202C107.387 8.58551 107.503 9.0926 107.573 9.60704C107.705 9.21105 107.953 8.86441 108.287 8.61302C108.668 8.31111 109.09 8.06436 109.541 7.88002C110.017 7.68082 110.511 7.52908 111.017 7.42701C111.464 7.33097 111.919 7.2794 112.377 7.27302H112.454C113.829 7.26191 115.191 7.54455 116.448 8.10203C117.656 8.63706 118.75 9.40034 119.67 10.35C121.566 12.327 122.622 14.962 122.617 17.7014C122.611 20.4408 121.545 23.0715 119.641 25.041C118.711 25.9867 117.607 26.7433 116.39 27.269C115.124 27.8195 113.757 28.0989 112.377 28.089C111.576 28.0865 110.782 27.9562 110.023 27.703C109.228 27.4404 108.498 27.0131 107.881 26.449V34.359H102.807L102.81 7.56202ZM112.36 12.308C111.477 12.3037 110.607 12.5123 109.823 12.916C109.054 13.3016 108.389 13.8661 107.884 14.562V20.774C108.398 21.4785 109.072 22.0517 109.85 22.4473C110.627 22.8429 111.487 23.0497 112.36 23.051C113.07 23.0582 113.774 22.9133 114.424 22.626C115.041 22.3524 115.599 21.9592 116.064 21.469C116.531 20.9736 116.901 20.3945 117.154 19.762C117.681 18.4196 117.681 16.9274 117.154 15.585C116.904 14.951 116.534 14.3714 116.064 13.878C115.597 13.3928 115.04 13.0029 114.424 12.73C113.774 12.4439 113.07 12.3 112.36 12.308Z" fill="#414141"/>
<path d="M129.746 7.56199C129.815 7.71057 129.892 7.85542 129.977 7.99599C130.113 8.25401 130.18 8.54329 130.17 8.835V9.99199C130.291 9.64935 130.489 9.33908 130.749 9.085C131.027 8.81002 131.342 8.57448 131.685 8.38499C132.051 8.18023 132.435 8.0092 132.833 7.87401C133.228 7.73729 133.631 7.62144 134.039 7.52699C134.404 7.44155 134.775 7.37712 135.148 7.334C135.442 7.29864 135.738 7.27927 136.035 7.27598C137.406 7.26435 138.764 7.54384 140.019 8.09599C141.218 8.62259 142.3 9.38349 143.202 10.334C144.105 11.2972 144.818 12.4231 145.302 13.652C146.318 16.254 146.318 19.143 145.302 21.745C144.816 22.9705 144.104 24.0932 143.202 25.054C142.118 26.1985 140.775 27.0645 139.285 27.5785C137.796 28.0924 136.204 28.2391 134.646 28.006C134.137 27.9286 133.639 27.7944 133.161 27.606C132.624 27.3947 132.116 27.1194 131.646 26.786C131.095 26.3929 130.599 25.9289 130.17 25.406V34.628H127.025V7.56199H129.746ZM136.035 25.022C136.998 25.0335 137.952 24.8395 138.835 24.453C139.664 24.0876 140.409 23.5556 141.024 22.89C141.645 22.2109 142.13 21.4184 142.452 20.556C143.133 18.7067 143.133 16.6752 142.452 14.826C142.13 13.9637 141.645 13.1713 141.024 12.492C140.409 11.8266 139.664 11.2946 138.835 10.929C137.952 10.5426 136.998 10.3487 136.035 10.36C134.942 10.3599 133.861 10.5834 132.859 11.017C131.85 11.4451 130.936 12.0676 130.169 12.849V22.032C130.514 22.5048 130.917 22.9324 131.369 23.305C131.809 23.6719 132.292 23.9857 132.806 24.24C133.313 24.4909 133.847 24.685 134.398 24.819C134.93 24.9521 135.476 25.0213 136.025 25.025L136.035 25.022Z" fill="#4D4D4D"/>
<path d="M148.742 17.6941C148.734 16.3047 149.013 14.9287 149.562 13.6521C150.496 11.4349 152.169 9.60928 154.297 8.48501C156.424 7.36074 158.875 7.00702 161.234 7.48388C163.592 7.96073 165.713 9.23879 167.237 11.1012C168.76 12.9637 169.593 15.2959 169.593 17.7021C169.593 20.1084 168.76 22.4405 167.237 24.303C165.713 26.1655 163.592 27.4435 161.234 27.9204C158.875 28.3972 156.424 28.0435 154.297 26.9192C152.169 25.795 150.496 23.9694 149.562 21.7521C149.012 20.4703 148.733 19.0888 148.742 17.6941ZM151.829 17.6941C151.822 18.6788 152.019 19.6542 152.408 20.5591C152.778 21.4304 153.312 22.2226 153.981 22.8931C154.648 23.5592 155.437 24.09 156.306 24.4561C157.212 24.8319 158.184 25.0252 159.166 25.0252C160.147 25.0252 161.119 24.8319 162.026 24.4561C163.591 23.8009 164.88 22.6231 165.673 21.1237C166.467 19.6243 166.716 17.8961 166.378 16.2336C166.04 14.5711 165.136 13.0773 163.82 12.0068C162.504 10.9363 160.857 10.3554 159.161 10.3631C158.18 10.356 157.208 10.5497 156.306 10.9321C155.437 11.2985 154.648 11.8293 153.981 12.4951C153.312 13.1658 152.778 13.958 152.408 14.8291C152.02 15.7343 151.824 16.7096 151.832 17.6941H151.829Z" fill="#4D4D4D"/>
<path d="M172.392 17.6941C172.384 16.3047 172.663 14.9287 173.212 13.6521C174.146 11.4349 175.819 9.60928 177.947 8.48501C180.074 7.36074 182.525 7.00702 184.884 7.48388C187.242 7.96073 189.363 9.23879 190.887 11.1012C192.41 12.9637 193.243 15.2959 193.243 17.7021C193.243 20.1084 192.41 22.4405 190.887 24.303C189.363 26.1655 187.242 27.4435 184.884 27.9204C182.525 28.3972 180.074 28.0435 177.947 26.9192C175.819 25.795 174.146 23.9694 173.212 21.7521C172.662 20.4702 172.383 19.0888 172.392 17.6941ZM175.479 17.6941C175.472 18.6788 175.669 19.6542 176.058 20.5591C176.428 21.4302 176.962 22.2224 177.63 22.8931C178.297 23.5591 179.086 24.0899 179.955 24.4561C180.857 24.8387 181.829 25.0324 182.81 25.0251C184.015 25.0248 185.202 24.7273 186.266 24.159C187.329 23.5906 188.236 22.7689 188.906 21.7666C189.576 20.7643 189.989 19.6122 190.107 18.4124C190.226 17.2126 190.047 16.002 189.586 14.8878C189.126 13.7736 188.398 12.7901 187.466 12.0244C186.535 11.2586 185.429 10.7343 184.247 10.4977C183.065 10.2612 181.843 10.3196 180.688 10.668C179.534 11.0164 178.484 11.644 177.63 12.4951C176.962 13.1659 176.428 13.9581 176.058 14.8291C175.67 15.7343 175.474 16.7096 175.482 17.6941H175.479Z" fill="#4D4D4D"/>
<path d="M201.007 0.176025V27.822H197.862V0.176025H201.007Z" fill="#4D4D4D"/>
<path d="M26.9907 15.011L16.3707 4.39096C14.5722 2.59258 12.133 1.58228 9.58969 1.58228C7.04634 1.58228 4.60715 2.59258 2.80869 4.39096C1.01031 6.18942 0 8.62862 0 11.172C0 13.7153 1.01031 16.1545 2.80869 17.953L13.4287 28.573C15.2272 30.3713 17.6663 31.3817 20.2097 31.3817C22.753 31.3817 25.1922 30.3713 26.9907 28.573C28.7891 26.7745 29.7994 24.3353 29.7994 21.792C29.7994 19.2486 28.7891 16.8094 26.9907 15.011Z" fill="#5CC9F6"/>
<path d="M57.9507 11.205C56.1522 9.40658 53.713 8.39624 51.1697 8.39624C48.6263 8.39624 46.1871 9.40658 44.3887 11.205C43.4981 12.0955 42.7916 13.1527 42.3096 14.3163C41.8276 15.4799 41.5795 16.727 41.5795 17.9865C41.5795 19.2459 41.8276 20.493 42.3096 21.6566C42.7916 22.8202 43.4981 23.8774 44.3887 24.7679C46.1871 26.5663 48.6263 27.5766 51.1697 27.5766C53.713 27.5766 56.1522 26.5663 57.9507 24.7679C58.8413 23.8774 59.5478 22.8202 60.0298 21.6566C60.5118 20.493 60.7599 19.2459 60.7599 17.9865C60.7599 16.727 60.5118 15.4799 60.0298 14.3163C59.5478 13.1527 58.8413 12.0955 57.9507 11.205Z" fill="#FA8807"/>
<path d="M17.3487 11.1771L13.3837 15.1421L13.3667 15.1241C11.8169 16.6341 9.80206 17.5758 7.64949 17.796C5.49692 18.0162 3.33313 17.502 1.5097 16.3371C1.8835 16.921 2.31936 17.4629 2.80969 17.9531L7.0897 22.2331L7.1327 22.2171L13.4797 28.5641L30.8667 11.1771C29.9792 10.2893 28.9255 9.58502 27.7658 9.10452C26.606 8.62403 25.363 8.37671 24.1077 8.37671C22.8524 8.37671 21.6093 8.62403 20.4496 9.10452C19.2899 9.58502 18.2362 10.2893 17.3487 11.1771Z" fill="#00AEEB"/>
<path d="M51.1287 4.47598L51.1197 4.46698C50.2436 3.56168 49.1949 2.84126 48.0355 2.34826C46.8762 1.85526 45.6298 1.59969 44.37 1.59671C43.1101 1.59372 41.8625 1.84336 40.7009 2.33087C39.5392 2.81837 38.4871 3.53386 37.6067 4.43499L20.2287 21.813C18.5371 23.5034 16.2751 24.5007 13.8861 24.6095C11.4972 24.7183 9.15388 23.9306 7.3157 22.401L13.4797 28.565L13.4867 28.559C15.2829 30.3551 17.719 31.3642 20.2592 31.3642C22.7994 31.3642 25.2355 30.3551 27.0317 28.559L43.9567 11.634L43.9847 11.642C44.1157 11.494 44.2497 11.348 44.3917 11.206C45.5737 10.0227 47.0448 9.16932 48.6587 8.73074C50.2727 8.29216 51.9734 8.28363 53.5917 8.70599C53.1525 7.10582 52.3035 5.64783 51.1287 4.47598Z" fill="#0080CA"/>
<path d="M53.5857 8.70708C51.9674 8.28472 50.2667 8.29325 48.6527 8.73183C47.0387 9.17041 45.5677 10.0238 44.3857 11.2071C44.2437 11.3491 44.1097 11.4951 43.9787 11.6431L43.9517 11.6351L27.0267 28.5601C26.9957 28.5911 26.9637 28.6191 26.9337 28.6491L26.9447 28.6611C28.7431 30.4595 31.1823 31.4698 33.7257 31.4698C36.269 31.4698 38.7082 30.4595 40.5067 28.6611L51.1267 18.0411C52.3262 16.8422 53.1859 15.3464 53.618 13.7065C54.05 12.0665 54.0388 10.3413 53.5857 8.70708Z" fill="#EE5913"/>
<path d="M25.0227 7.53793C25.8666 7.53793 26.5507 6.85382 26.5507 6.00993C26.5507 5.16604 25.8666 4.48193 25.0227 4.48193C24.1788 4.48193 23.4947 5.16604 23.4947 6.00993C23.4947 6.85382 24.1788 7.53793 25.0227 7.53793Z" fill="#5CC9F6"/>
<path d="M21.6497 4.56693C22.1909 4.56693 22.6297 4.12817 22.6297 3.58693C22.6297 3.04569 22.1909 2.60693 21.6497 2.60693C21.1085 2.60693 20.6697 3.04569 20.6697 3.58693C20.6697 4.12817 21.1085 4.56693 21.6497 4.56693Z" fill="#5CC9F6"/>
<path d="M23.8137 1.96C24.3549 1.96 24.7937 1.52124 24.7937 0.98C24.7937 0.438761 24.3549 0 23.8137 0C23.2725 0 22.8337 0.438761 22.8337 0.98C22.8337 1.52124 23.2725 1.96 23.8137 1.96Z" fill="#5CC9F6"/>
</svg>
