<svg width="935" height="299" viewBox="0 0 935 299" fill="none" xmlns="http://www.w3.org/2000/svg">
<path d="M1 282L6 267.958H22L26 272.171L33 267.958L42 230.046H59L63 219.515L74 237.769L79 208.983L94 175.283L98 184.41L104.5 142.285L114 107.181L129.5 145.796L133.5 126.137L140 114.904L145 85.4167L149 96.65L173 114.904L176 129.648L185 136.669L188 156.327L203 145.796L208.5 126.137L213 96.65L218.5 175.283L222 192.133H238L244.5 208.983L255 199.154H273.5L281.5 187.921L285.5 199.154L295.5 162.646L312 156.327L332 187.921H348.5L364.5 149.306L383 166.858L387 142.285L399.5 156.327L406.5 162.646V171.773L420.5 162.646L428 171.773L434.5 145.796L465.5 114.904L476 118.415L499 149.306L524.5 118.415L528.5 107.181H537.5L541.5 121.925L550.5 114.904L564 118.415L568.5 142.285L583 145.796L592.5 126.137L606.5 142.285L612 136.669L615.5 149.781L620.5 100.635L636.5 71.1479L653 84.4875L656 94.3167H676.5L683.5 111.869L705 94.3167L715.5 80.9771L718.5 115.379L735 141.356L752 120.996L771.5 100.635L781 55L793 80.9771L809 125.208L815 90.8063L828.5 84.4875L848.5 71.1479L853.5 94.3167L862.5 111.869L872 120.996L876.5 105.55H891.5L899 115.379L903.5 105.55L911.5 120.996L921.5 100.635H935" stroke="#FC714D" stroke-width="2"/>
<path d="M1 282L10.0339 264.267L21.0752 258.356L40.1467 228.8H67.7501L71.7652 239.44L84.3122 215.796L111.916 201.609H133.497L145.04 149.591L156.081 168.507H169.13L172.141 149.591L188.703 188.604L206.771 168.507L216.809 162.596L225.341 179.147H240.397L244.412 207.52L251.438 188.604L258.967 201.609L275.529 195.698L286.57 207.52L294.098 201.609L307.147 179.147L325.215 188.604L332.743 228.8L348.301 215.796L350.811 207.52L361.852 201.609L365.867 188.604H382.429L399.493 179.147H411.538H434.625L443.157 149.591H465.742L471.764 168.507L496.858 162.596L506.896 168.507L512.918 162.596L525.465 149.591L560.597 141.316L566.62 156.684L578.665 188.604L587.197 168.507L590.71 141.316H609.279L617.31 168.507L658.966 129.493L685.565 149.591L700.622 105.849H721.199L748.802 118.853L752.315 91.6622L768.376 55.0133L790.458 64.4711L794.975 91.6622L803.005 78.6578V64.4711L815.552 55.0133L827.598 44.3733V37.28L839.643 55.0133L853.695 16L865.74 44.3733L878.789 55.0133L884.812 70.3822L891.336 55.0133L911.412 44.3733L914.925 37.28H935" stroke="#615DE3" stroke-width="2"/>
<path d="M1 261.689L5.49759 298H21.9888L24.4874 269.888L34.4821 261.689L58.4692 239.434L63.9663 221.865L79.9577 247.633L93.9502 221.865L98.9476 177.355L107.943 203.124L127.932 149.243L137.927 171.498L156.417 73.1076L170.409 117.618L186.401 171.498L205.391 117.618L225.88 138.701L237.373 111.761L270.356 157.442L282.349 164.47L326.326 117.618L353.311 203.124H362.307L369.303 177.355H384.295L391.791 203.124L398.287 177.355L414.778 191.41H427.272L434.768 164.47L450.259 130.502L452.758 111.761L459.255 138.701L470.249 157.442V164.47L505.23 177.355L521.721 164.47L537.713 191.41L558.701 157.442L575.692 171.498V203.124L605.177 221.865L616.67 247.633L647.154 216.008L678.138 203.124L682.135 185.554L706.122 164.47L712.619 138.701L718.116 149.243H728.111H736.606L751.098 130.502L764.091 97.7052L771.587 111.761L796.574 73.1076L803.57 54.3665L810.067 73.1076L830.056 54.3665L838.552 4L859.54 54.3665L882.528 62.5657L885.027 73.1076L901.518 82.4781L909.514 117.618L922.007 82.4781L928.503 77.7928H935" stroke="#AFCD80" stroke-width="2"/>
<path d="M1 283L5.52422 263.875H22.113L33.1722 252.625L47.7503 245.875H63.8364L72.8848 263.875L81.4306 252.625L100.533 245.875H105.057L112.095 235.75L125.165 245.875L147.283 217.75L161.861 229L172.418 217.75L177.947 229L208.109 217.75L224.698 245.875H246.816L251.843 252.625L256.367 245.875L263.405 252.625H282.507L288.037 245.875L291.053 252.625L296.08 245.875L311.16 235.75H326.744L339.311 271.75H357.911L362.938 263.875L369.473 235.75L372.991 263.875L383.045 252.625L391.591 245.875L396.618 252.625H404.661L425.774 245.875L429.293 252.625L436.833 235.75H448.395L461.465 229L474.535 235.75H513.242L527.318 252.625L535.863 245.875L573.565 235.75L584.624 217.75H602.219L615.289 229H622.829L634.893 223.375L640.926 229L648.466 223.375H662.541L679.13 229L687.173 217.75L701.751 212.125L714.319 217.75L721.859 229L734.929 212.125H752.02L757.047 223.375L765.09 212.125L769.112 194.125H788.214L793.241 202L795.755 194.125H806.814L824.911 181.75H834.462L839.489 166L845.018 173.875H864.121L870.153 181.75L878.699 173.875L894.785 194.125L901.822 181.75L914.892 173.875L917.406 166H935" stroke="#6F34A1" stroke-width="2"/>
</svg>
