<svg width="42" height="42" viewBox="0 0 42 42" fill="none" xmlns="http://www.w3.org/2000/svg">
<rect x="0.5" y="0.5" width="41" height="41" rx="20.5" stroke="white"/>
<mask id="mask0_1_1009" style="mask-type:alpha" maskUnits="userSpaceOnUse" x="14" y="14" width="14" height="14">
<rect x="14" y="14" width="14" height="14" fill="#D9D9D9"/>
</mask>
<g mask="url(#mask0_1_1009)">
<path d="M24.5 26.8334C24.0139 26.8334 23.6007 26.6633 23.2604 26.323C22.9201 25.9827 22.75 25.5695 22.75 25.0834C22.75 25.0154 22.7549 24.9449 22.7646 24.872C22.7743 24.799 22.7889 24.7334 22.8083 24.6751L18.6958 22.2834C18.5306 22.4292 18.3458 22.5435 18.1417 22.6261C17.9375 22.7088 17.7236 22.7501 17.5 22.7501C17.0139 22.7501 16.6007 22.5799 16.2604 22.2397C15.9201 21.8994 15.75 21.4862 15.75 21.0001C15.75 20.514 15.9201 20.1008 16.2604 19.7605C16.6007 19.4202 17.0139 19.2501 17.5 19.2501C17.7236 19.2501 17.9375 19.2914 18.1417 19.374C18.3458 19.4567 18.5306 19.5709 18.6958 19.7167L22.8083 17.3251C22.7889 17.2667 22.7743 17.2011 22.7646 17.1282C22.7549 17.0553 22.75 16.9848 22.75 16.9167C22.75 16.4306 22.9201 16.0174 23.2604 15.6772C23.6007 15.3369 24.0139 15.1667 24.5 15.1667C24.9861 15.1667 25.3993 15.3369 25.7396 15.6772C26.0799 16.0174 26.25 16.4306 26.25 16.9167C26.25 17.4029 26.0799 17.8161 25.7396 18.1563C25.3993 18.4966 24.9861 18.6667 24.5 18.6667C24.2764 18.6667 24.0625 18.6254 23.8583 18.5428C23.6542 18.4602 23.4694 18.3459 23.3042 18.2001L19.1917 20.5917C19.2111 20.6501 19.2257 20.7157 19.2354 20.7886C19.2451 20.8615 19.25 20.932 19.25 21.0001C19.25 21.0681 19.2451 21.1386 19.2354 21.2115C19.2257 21.2845 19.2111 21.3501 19.1917 21.4084L23.3042 23.8001C23.4694 23.6542 23.6542 23.54 23.8583 23.4574C24.0625 23.3747 24.2764 23.3334 24.5 23.3334C24.9861 23.3334 25.3993 23.5036 25.7396 23.8438C26.0799 24.1841 26.25 24.5973 26.25 25.0834C26.25 25.5695 26.0799 25.9827 25.7396 26.323C25.3993 26.6633 24.9861 26.8334 24.5 26.8334Z" fill="white"/>
</g>
</svg>
